<svg width="512" height="512" viewBox="0 0 512 512" fill="none" xmlns="http://www.w3.org/2000/svg">
  <rect width="512" height="512" rx="100" fill="#5E35B1"/>
  <path d="M256 120C181.307 120 120 181.307 120 256C120 330.693 181.307 392 256 392C330.693 392 392 330.693 392 256C392 181.307 330.693 120 256 120ZM256 152C313.438 152 360 198.562 360 256C360 313.438 313.438 360 256 360C198.562 360 152 313.438 152 256C152 198.562 198.562 152 256 152ZM256 184C216.235 184 184 216.235 184 256C184 295.765 216.235 328 256 328C295.765 328 328 295.765 328 256C328 216.235 295.765 184 256 184ZM256 216C278.091 216 296 233.909 296 256C296 278.091 278.091 296 256 296C233.909 296 216 278.091 216 256C216 233.909 233.909 216 256 216Z" fill="white"/>
</svg>
